<svg width="40" height="40" viewBox="0 0 40 40" fill="none" xmlns="http://www.w3.org/2000/svg">
<path d="M4.61634 16.6663C3.89967 16.6663 3.33301 16.0997 3.33301 15.383L3.33301 11.533C3.33301 7.01634 7.01634 3.33301 11.533 3.33301L15.383 3.33301C16.0997 3.33301 16.6663 3.89967 16.6663 4.61634C16.6663 5.33301 16.0997 5.89967 15.383 5.89967L11.533 5.89967C8.41634 5.89967 5.89967 8.43301 5.89967 11.533L5.89967 15.383C5.89967 16.0997 5.31634 16.6663 4.61634 16.6663Z" fill="white"/>
<path d="M35.383 16.6663C34.683 16.6663 34.0997 16.0997 34.0997 15.383V11.533C34.0997 8.41634 31.5663 5.89967 28.4663 5.89967H24.6163C23.8997 5.89967 23.333 5.31634 23.333 4.61634C23.333 3.91634 23.8997 3.33301 24.6163 3.33301L28.4663 3.33301C32.983 3.33301 36.6663 7.01634 36.6663 11.533V15.383C36.6663 16.0997 36.0997 16.6663 35.383 16.6663Z" fill="white"/>
<path d="M28.4662 36.6671H26.1495C25.4495 36.6671 24.8662 36.1005 24.8662 35.3838C24.8662 34.6838 25.4329 34.1005 26.1495 34.1005H28.4662C31.5829 34.1005 34.0995 31.5671 34.0995 28.4671V26.1671C34.0995 25.4671 34.6662 24.8838 35.3829 24.8838C36.0829 24.8838 36.6662 25.4505 36.6662 26.1671V28.4671C36.6662 32.9838 32.9829 36.6671 28.4662 36.6671Z" fill="white"/>
<path d="M15.383 36.6663H11.533C7.01634 36.6663 3.33301 32.983 3.33301 28.4663L3.33301 24.6163C3.33301 23.8997 3.89967 23.333 4.61634 23.333C5.33301 23.333 5.89967 23.8997 5.89967 24.6163V28.4663C5.89967 31.583 8.43301 34.0997 11.533 34.0997H15.383C16.083 34.0997 16.6663 34.6663 16.6663 35.383C16.6663 36.0997 16.0997 36.6663 15.383 36.6663Z" fill="white"/>
<path d="M30.7669 18.7168H28.5002H11.5002H9.23353C8.51686 18.7168 7.9502 19.3001 7.9502 20.0001C7.9502 20.7001 8.51686 21.2835 9.23353 21.2835H11.5002H28.5002H30.7669C31.4835 21.2835 32.0502 20.7001 32.0502 20.0001C32.0502 19.3001 31.4835 18.7168 30.7669 18.7168Z" fill="white"/>
<path d="M11.5 23.2338V23.7838C11.5 26.5505 13.7333 28.7838 16.5 28.7838H23.5C26.2667 28.7838 28.5 26.5505 28.5 23.7838V23.2338C28.5 23.0338 28.35 22.8838 28.15 22.8838H11.85C11.65 22.8838 11.5 23.0338 11.5 23.2338Z" fill="white"/>
<path d="M11.5 16.7668V16.2168C11.5 13.4501 13.7333 11.2168 16.5 11.2168H23.5C26.2667 11.2168 28.5 13.4501 28.5 16.2168V16.7668C28.5 16.9668 28.35 17.1168 28.15 17.1168H11.85C11.65 17.1168 11.5 16.9668 11.5 16.7668Z" fill="white"/>
</svg>
